<svg xmlns="http://www.w3.org/2000/svg" xmlns:xlink="http://www.w3.org/1999/xlink" width="600" zoomAndPan="magnify" viewBox="0 0 450 449.999984" height="600" preserveAspectRatio="xMidYMid meet" version="1.0"><path fill="#008037" d="M 225 0 C 100.734375 0 0 100.734375 0 225 C 0 349.265625 100.734375 450 225 450 C 349.265625 450 450 349.265625 450 225 C 450 100.734375 349.265625 0 225 0 " fill-opacity="1" fill-rule="nonzero"/><path fill="#ffffff" d="M 225 405 C 222.054688 405 219.109375 404.925781 216.167969 404.78125 C 213.226562 404.636719 210.289062 404.421875 207.355469 404.132812 C 204.425781 403.84375 201.503906 403.484375 198.589844 403.050781 C 195.675781 402.621094 192.773438 402.117188 189.882812 401.542969 C 186.996094 400.964844 184.121094 400.320312 181.261719 399.605469 C 178.40625 398.890625 175.566406 398.105469 172.75 397.25 C 169.929688 396.394531 167.132812 395.46875 164.359375 394.476562 C 161.585938 393.484375 158.839844 392.425781 156.117188 391.296875 C 153.394531 390.171875 150.703125 388.976562 148.039062 387.71875 C 145.378906 386.457031 142.746094 385.132812 140.148438 383.746094 C 137.550781 382.355469 134.988281 380.90625 132.460938 379.390625 C 129.933594 377.875 127.445312 376.300781 124.996094 374.664062 C 122.546875 373.027344 120.140625 371.332031 117.773438 369.578125 C 115.40625 367.824219 113.085938 366.011719 110.808594 364.140625 C 108.53125 362.273438 106.300781 360.347656 104.121094 358.371094 C 101.9375 356.394531 99.804688 354.363281 97.722656 352.277344 C 95.636719 350.195312 93.605469 348.0625 91.628906 345.878906 C 89.652344 343.699219 87.726562 341.46875 85.859375 339.191406 C 83.988281 336.914062 82.175781 334.59375 80.421875 332.226562 C 78.667969 329.859375 76.972656 327.453125 75.335938 325.003906 C 73.699219 322.554688 72.125 320.066406 70.609375 317.539062 C 69.09375 315.011719 67.644531 312.449219 66.253906 309.851562 C 64.867188 307.253906 63.542969 304.621094 62.28125 301.960938 C 61.023438 299.296875 59.828125 296.605469 58.703125 293.882812 C 57.574219 291.160156 56.515625 288.414062 55.523438 285.640625 C 54.53125 282.867188 53.605469 280.070312 52.75 277.25 C 51.894531 274.433594 51.109375 271.59375 50.394531 268.738281 C 49.679688 265.878906 49.035156 263.003906 48.457031 260.117188 C 47.882812 257.226562 47.378906 254.324219 46.949219 251.410156 C 46.515625 248.496094 46.15625 245.574219 45.867188 242.644531 C 45.578125 239.710938 45.363281 236.773438 45.21875 233.832031 C 45.074219 230.890625 45 227.945312 45 225 C 45 222.054688 45.074219 219.109375 45.21875 216.167969 C 45.363281 213.226562 45.578125 210.289062 45.867188 207.355469 C 46.15625 204.425781 46.515625 201.503906 46.949219 198.589844 C 47.378906 195.675781 47.882812 192.773438 48.457031 189.882812 C 49.035156 186.996094 49.679688 184.121094 50.394531 181.261719 C 51.109375 178.40625 51.894531 175.566406 52.75 172.75 C 53.605469 169.929688 54.53125 167.132812 55.523438 164.359375 C 56.515625 161.585938 57.574219 158.839844 58.703125 156.117188 C 59.828125 153.394531 61.023438 150.703125 62.28125 148.039062 C 63.542969 145.378906 64.867188 142.746094 66.253906 140.148438 C 67.644531 137.550781 69.09375 134.988281 70.609375 132.460938 C 72.125 129.933594 73.699219 127.445312 75.335938 124.996094 C 76.972656 122.546875 78.667969 120.140625 80.421875 117.773438 C 82.175781 115.40625 83.988281 113.085938 85.859375 110.808594 C 87.726562 108.53125 89.652344 106.300781 91.628906 104.121094 C 93.605469 101.9375 95.636719 99.804688 97.722656 97.722656 C 99.804688 95.636719 101.9375 93.605469 104.121094 91.628906 C 106.300781 89.652344 108.53125 87.726562 110.808594 85.859375 C 113.085938 83.988281 115.40625 82.175781 117.773438 80.421875 C 120.140625 78.667969 122.546875 76.972656 124.996094 75.335938 C 127.445312 73.699219 129.933594 72.125 132.460938 70.609375 C 134.988281 69.09375 137.550781 67.644531 140.148438 66.253906 C 142.746094 64.867188 145.378906 63.542969 148.039062 62.28125 C 150.703125 61.023438 153.394531 59.828125 156.117188 58.703125 C 158.839844 57.574219 161.585938 56.515625 164.359375 55.523438 C 167.132812 54.53125 169.929688 53.605469 172.75 52.75 C 175.566406 51.894531 178.40625 51.109375 181.261719 50.394531 C 184.121094 49.679688 186.996094 49.035156 189.882812 48.457031 C 192.773438 47.882812 195.675781 47.378906 198.589844 46.949219 C 201.503906 46.515625 204.425781 46.15625 207.355469 45.867188 C 210.289062 45.578125 213.226562 45.363281 216.167969 45.21875 C 219.109375 45.074219 222.054688 45 225 45 C 227.945312 45 230.890625 45.074219 233.832031 45.21875 C 236.773438 45.363281 239.710938 45.578125 242.644531 45.867188 C 245.574219 46.15625 248.496094 46.515625 251.410156 46.949219 C 254.324219 47.378906 257.226562 47.882812 260.117188 48.457031 C 263.003906 49.035156 265.878906 49.679688 268.738281 50.394531 C 271.59375 51.109375 274.433594 51.894531 277.25 52.75 C 280.070312 53.605469 282.867188 54.53125 285.640625 55.523438 C 288.414062 56.515625 291.160156 57.574219 293.882812 58.703125 C 296.605469 59.828125 299.296875 61.023438 301.960938 62.28125 C 304.621094 63.542969 307.253906 64.867188 309.851562 66.253906 C 312.449219 67.644531 315.011719 69.09375 317.539062 70.609375 C 320.066406 72.125 322.554688 73.699219 325.003906 75.335938 C 327.453125 76.972656 329.859375 78.667969 332.226562 80.421875 C 334.59375 82.175781 336.914062 83.988281 339.191406 85.859375 C 341.46875 87.726562 343.699219 89.652344 345.878906 91.628906 C 348.0625 93.605469 350.195312 95.636719 352.277344 97.722656 C 354.363281 99.804688 356.394531 101.9375 358.371094 104.121094 C 360.347656 106.300781 362.273438 108.53125 364.140625 110.808594 C 366.011719 113.085938 367.824219 115.40625 369.578125 117.773438 C 371.332031 120.140625 373.027344 122.546875 374.664062 124.996094 C 376.300781 127.445312 377.875 129.933594 379.390625 132.460938 C 380.90625 134.988281 382.355469 137.550781 383.746094 140.148438 C 385.132812 142.746094 386.457031 145.378906 387.71875 148.039062 C 388.976562 150.703125 390.171875 153.394531 391.296875 156.117188 C 392.425781 158.839844 393.484375 161.585938 394.476562 164.359375 C 395.46875 167.132812 396.394531 169.929688 397.25 172.75 C 398.105469 175.566406 398.890625 178.40625 399.605469 181.261719 C 400.320312 184.121094 400.964844 186.996094 401.542969 189.882812 C 402.117188 192.773438 402.621094 195.675781 403.050781 198.589844 C 403.484375 201.503906 403.84375 204.425781 404.132812 207.355469 C 404.421875 210.289062 404.636719 213.226562 404.78125 216.167969 C 404.925781 219.109375 405 222.054688 405 225 C 404.996094 227.945312 404.921875 230.886719 404.773438 233.828125 C 404.625 236.769531 404.40625 239.707031 404.113281 242.636719 C 403.824219 245.566406 403.460938 248.488281 403.023438 251.402344 C 402.589844 254.3125 402.085938 257.214844 401.507812 260.101562 C 400.929688 262.988281 400.285156 265.863281 399.566406 268.71875 C 398.847656 271.574219 398.058594 274.410156 397.203125 277.226562 C 396.347656 280.046875 395.421875 282.839844 394.425781 285.613281 C 393.433594 288.386719 392.371094 291.132812 391.242188 293.851562 C 390.117188 296.570312 388.921875 299.261719 387.660156 301.925781 C 386.398438 304.585938 385.074219 307.214844 383.6875 309.8125 C 382.296875 312.40625 380.84375 314.96875 379.328125 317.492188 C 377.816406 320.019531 376.238281 322.507812 374.601562 324.953125 C 372.964844 327.402344 371.269531 329.808594 369.515625 332.175781 C 367.757812 334.539062 365.949219 336.859375 364.078125 339.136719 C 362.210938 341.414062 360.289062 343.640625 358.308594 345.824219 C 356.332031 348.003906 354.300781 350.136719 352.21875 352.21875 C 350.136719 354.300781 348.003906 356.332031 345.824219 358.308594 C 343.640625 360.289062 341.414062 362.210938 339.136719 364.078125 C 336.859375 365.949219 334.539062 367.757812 332.175781 369.515625 C 329.808594 371.269531 327.402344 372.964844 324.953125 374.601562 C 322.507812 376.238281 320.019531 377.816406 317.496094 379.328125 C 314.96875 380.84375 312.40625 382.296875 309.8125 383.6875 C 307.214844 385.074219 304.585938 386.398438 301.925781 387.660156 C 299.261719 388.921875 296.570312 390.117188 293.851562 391.242188 C 291.132812 392.371094 288.386719 393.433594 285.613281 394.425781 C 282.839844 395.421875 280.046875 396.347656 277.226562 397.203125 C 274.410156 398.058594 271.574219 398.847656 268.71875 399.566406 C 265.863281 400.285156 262.988281 400.929688 260.101562 401.507812 C 257.214844 402.085938 254.3125 402.589844 251.402344 403.023438 C 248.488281 403.460938 245.566406 403.824219 242.636719 404.113281 C 239.707031 404.40625 236.769531 404.625 233.828125 404.773438 C 230.886719 404.921875 227.945312 404.996094 225 405 Z M 225 57 C 222.25 57 219.503906 57.066406 216.757812 57.203125 C 214.011719 57.335938 211.269531 57.539062 208.53125 57.808594 C 205.796875 58.078125 203.070312 58.414062 200.347656 58.816406 C 197.628906 59.222656 194.921875 59.691406 192.226562 60.226562 C 189.527344 60.765625 186.847656 61.367188 184.179688 62.035156 C 181.511719 62.703125 178.863281 63.4375 176.230469 64.234375 C 173.601562 65.03125 170.992188 65.894531 168.402344 66.820312 C 165.8125 67.746094 163.25 68.734375 160.710938 69.789062 C 158.167969 70.839844 155.65625 71.953125 153.171875 73.128906 C 150.683594 74.304688 148.230469 75.542969 145.804688 76.835938 C 143.378906 78.132812 140.988281 79.488281 138.628906 80.902344 C 136.273438 82.316406 133.949219 83.785156 131.664062 85.3125 C 129.378906 86.839844 127.132812 88.421875 124.921875 90.0625 C 122.714844 91.699219 120.546875 93.390625 118.421875 95.132812 C 116.296875 96.878906 114.214844 98.671875 112.179688 100.519531 C 110.140625 102.367188 108.148438 104.261719 106.207031 106.207031 C 104.261719 108.148438 102.367188 110.140625 100.519531 112.179688 C 98.671875 114.214844 96.878906 116.296875 95.132812 118.421875 C 93.390625 120.546875 91.699219 122.714844 90.0625 124.921875 C 88.421875 127.132812 86.839844 129.378906 85.3125 131.664062 C 83.785156 133.949219 82.316406 136.273438 80.902344 138.628906 C 79.488281 140.988281 78.132812 143.378906 76.835938 145.804688 C 75.542969 148.230469 74.304688 150.683594 73.128906 153.171875 C 71.953125 155.65625 70.839844 158.167969 69.789062 160.710938 C 68.734375 163.25 67.746094 165.8125 66.820312 168.402344 C 65.894531 170.992188 65.03125 173.601562 64.234375 176.230469 C 63.4375 178.863281 62.703125 181.511719 62.035156 184.179688 C 61.367188 186.847656 60.765625 189.527344 60.226562 192.226562 C 59.691406 194.921875 59.222656 197.628906 58.816406 200.347656 C 58.414062 203.070312 58.078125 205.796875 57.808594 208.53125 C 57.539062 211.269531 57.335938 214.011719 57.203125 216.757812 C 57.066406 219.503906 57 222.25 57 225 C 57 227.75 57.066406 230.496094 57.203125 233.242188 C 57.335938 235.988281 57.539062 238.730469 57.808594 241.46875 C 58.078125 244.203125 58.414062 246.929688 58.816406 249.652344 C 59.222656 252.371094 59.691406 255.078125 60.226562 257.773438 C 60.765625 260.472656 61.367188 263.152344 62.035156 265.820312 C 62.703125 268.488281 63.4375 271.136719 64.234375 273.769531 C 65.03125 276.398438 65.894531 279.007812 66.820312 281.597656 C 67.746094 284.1875 68.734375 286.75 69.789062 289.289062 C 70.839844 291.832031 71.953125 294.34375 73.128906 296.828125 C 74.304688 299.316406 75.542969 301.769531 76.835938 304.195312 C 78.132812 306.621094 79.488281 309.011719 80.902344 311.371094 C 82.316406 313.726562 83.785156 316.050781 85.3125 318.335938 C 86.839844 320.621094 88.421875 322.867188 90.0625 325.078125 C 91.699219 327.285156 93.390625 329.453125 95.132812 331.578125 C 96.878906 333.703125 98.671875 335.785156 100.519531 337.820312 C 102.367188 339.859375 104.261719 341.851562 106.207031 343.792969 C 108.148438 345.738281 110.140625 347.632812 112.179688 349.480469 C 114.214844 351.324219 116.296875 353.121094 118.421875 354.867188 C 120.546875 356.609375 122.714844 358.300781 124.921875 359.9375 C 127.132812 361.578125 129.378906 363.160156 131.664062 364.6875 C 133.949219 366.214844 136.273438 367.683594 138.628906 369.097656 C 140.988281 370.511719 143.378906 371.867188 145.804688 373.164062 C 148.230469 374.457031 150.683594 375.695312 153.171875 376.871094 C 155.65625 378.046875 158.167969 379.160156 160.710938 380.210938 C 163.25 381.265625 165.8125 382.253906 168.402344 383.179688 C 170.992188 384.105469 173.601562 384.96875 176.230469 385.765625 C 178.863281 386.5625 181.511719 387.296875 184.179688 387.964844 C 186.847656 388.632812 189.527344 389.234375 192.226562 389.773438 C 194.921875 390.308594 197.628906 390.777344 200.347656 391.179688 C 203.070312 391.585938 205.796875 391.921875 208.53125 392.191406 C 211.269531 392.460938 214.011719 392.664062 216.757812 392.796875 C 219.503906 392.933594 222.25 393 225 393 C 227.75 393 230.496094 392.933594 233.242188 392.796875 C 235.988281 392.664062 238.730469 392.460938 241.46875 392.191406 C 244.203125 391.921875 246.929688 391.585938 249.652344 391.179688 C 252.371094 390.777344 255.078125 390.308594 257.773438 389.773438 C 260.472656 389.234375 263.152344 388.632812 265.820312 387.964844 C 268.488281 387.296875 271.136719 386.5625 273.769531 385.765625 C 276.398438 384.96875 279.007812 384.105469 281.597656 383.179688 C 284.1875 382.253906 286.75 381.265625 289.289062 380.210938 C 291.832031 379.160156 294.34375 378.046875 296.828125 376.871094 C 299.316406 375.695312 301.769531 374.457031 304.195312 373.164062 C 306.621094 371.867188 309.011719 370.511719 311.371094 369.097656 C 313.726562 367.683594 316.050781 366.214844 318.335938 364.6875 C 320.621094 363.160156 322.867188 361.578125 325.078125 359.9375 C 327.285156 358.300781 329.453125 356.609375 331.578125 354.867188 C 333.703125 353.121094 335.785156 351.324219 337.820312 349.480469 C 339.859375 347.632812 341.851562 345.738281 343.792969 343.792969 C 345.738281 341.851562 347.632812 339.859375 349.480469 337.820312 C 351.324219 335.785156 353.121094 333.703125 354.867188 331.578125 C 356.609375 329.453125 358.300781 327.285156 359.9375 325.078125 C 361.578125 322.867188 363.160156 320.621094 364.6875 318.335938 C 366.214844 316.050781 367.683594 313.726562 369.097656 311.371094 C 370.511719 309.011719 371.867188 306.621094 373.164062 304.195312 C 374.457031 301.769531 375.695312 299.316406 376.871094 296.828125 C 378.046875 294.34375 379.160156 291.832031 380.210938 289.289062 C 381.265625 286.75 382.253906 284.1875 383.179688 281.597656 C 384.105469 279.007812 384.96875 276.398438 385.765625 273.769531 C 386.5625 271.136719 387.296875 268.488281 387.964844 265.820312 C 388.632812 263.152344 389.234375 260.472656 389.773438 257.773438 C 390.308594 255.078125 390.777344 252.371094 391.179688 249.652344 C 391.585938 246.929688 391.921875 244.203125 392.191406 241.46875 C 392.460938 238.730469 392.664062 235.988281 392.796875 233.242188 C 392.933594 230.496094 393 227.75 393 225 C 392.996094 222.25 392.925781 219.503906 392.789062 216.757812 C 392.652344 214.015625 392.445312 211.273438 392.171875 208.539062 C 391.902344 205.804688 391.5625 203.078125 391.15625 200.359375 C 390.75 197.640625 390.277344 194.933594 389.738281 192.238281 C 389.203125 189.542969 388.597656 186.863281 387.925781 184.195312 C 387.257812 181.53125 386.523438 178.882812 385.722656 176.253906 C 384.921875 173.625 384.058594 171.015625 383.132812 168.429688 C 382.203125 165.839844 381.214844 163.277344 380.160156 160.738281 C 379.105469 158.199219 377.992188 155.6875 376.816406 153.203125 C 375.640625 150.71875 374.402344 148.265625 373.105469 145.84375 C 371.808594 143.417969 370.453125 141.03125 369.039062 138.671875 C 367.625 136.316406 366.15625 133.996094 364.628906 131.710938 C 363.101562 129.425781 361.515625 127.179688 359.878906 124.972656 C 358.242188 122.765625 356.550781 120.597656 354.808594 118.472656 C 353.0625 116.347656 351.269531 114.269531 349.421875 112.230469 C 347.574219 110.195312 345.679688 108.207031 343.738281 106.261719 C 341.792969 104.320312 339.804688 102.425781 337.769531 100.578125 C 335.730469 98.730469 333.652344 96.9375 331.527344 95.191406 C 329.402344 93.449219 327.234375 91.757812 325.027344 90.121094 C 322.820312 88.480469 320.574219 86.898438 318.289062 85.371094 C 316.003906 83.84375 313.683594 82.375 311.328125 80.960938 C 308.96875 79.546875 306.582031 78.191406 304.15625 76.894531 C 301.734375 75.597656 299.28125 74.359375 296.796875 73.183594 C 294.3125 72.007812 291.800781 70.894531 289.261719 69.839844 C 286.722656 68.785156 284.160156 67.796875 281.570312 66.867188 C 278.984375 65.941406 276.375 65.078125 273.746094 64.277344 C 271.117188 63.476562 268.46875 62.742188 265.804688 62.074219 C 263.136719 61.402344 260.457031 60.796875 257.761719 60.261719 C 255.066406 59.722656 252.359375 59.25 249.640625 58.84375 C 246.921875 58.4375 244.195312 58.097656 241.460938 57.828125 C 238.726562 57.554688 235.984375 57.347656 233.242188 57.210938 C 230.496094 57.074219 227.75 57.003906 225 57 Z M 225 57 " fill-opacity="1" fill-rule="nonzero"/><path fill="#ffffff" d="M 225 381 C 222.445312 381 219.894531 380.9375 217.34375 380.8125 C 214.796875 380.6875 212.25 380.5 209.710938 380.25 C 207.167969 380 204.636719 379.6875 202.109375 379.3125 C 199.585938 378.9375 197.070312 378.5 194.566406 378.003906 C 192.0625 377.503906 189.570312 376.945312 187.09375 376.324219 C 184.617188 375.703125 182.160156 375.023438 179.714844 374.28125 C 177.273438 373.542969 174.847656 372.742188 172.445312 371.878906 C 170.042969 371.019531 167.660156 370.101562 165.300781 369.125 C 162.941406 368.148438 160.609375 367.113281 158.300781 366.023438 C 155.992188 364.929688 153.714844 363.78125 151.460938 362.578125 C 149.210938 361.375 146.988281 360.117188 144.800781 358.804688 C 142.609375 357.492188 140.453125 356.128906 138.332031 354.710938 C 136.207031 353.289062 134.121094 351.820312 132.070312 350.300781 C 130.019531 348.78125 128.007812 347.210938 126.035156 345.589844 C 124.0625 343.96875 122.128906 342.304688 120.238281 340.589844 C 118.34375 338.875 116.496094 337.113281 114.691406 335.308594 C 112.886719 333.503906 111.125 331.65625 109.410156 329.761719 C 107.695312 327.871094 106.03125 325.9375 104.410156 323.964844 C 102.789062 321.992188 101.21875 319.980469 99.699219 317.929688 C 98.179688 315.878906 96.710938 313.792969 95.289062 311.667969 C 93.871094 309.546875 92.507812 307.390625 91.195312 305.199219 C 89.882812 303.011719 88.625 300.789062 87.421875 298.539062 C 86.214844 296.285156 85.070312 294.007812 83.976562 291.699219 C 82.886719 289.390625 81.851562 287.058594 80.875 284.699219 C 79.898438 282.339844 78.980469 279.957031 78.117188 277.554688 C 77.257812 275.152344 76.457031 272.726562 75.71875 270.285156 C 74.976562 267.839844 74.296875 265.382812 73.675781 262.90625 C 73.054688 260.429688 72.496094 257.9375 71.996094 255.433594 C 71.5 252.929688 71.0625 250.414062 70.6875 247.890625 C 70.3125 245.363281 70 242.832031 69.75 240.289062 C 69.5 237.75 69.3125 235.203125 69.1875 232.65625 C 69.0625 230.105469 69 227.554688 69 225 C 69 222.445312 69.0625 219.894531 69.1875 217.34375 C 69.3125 214.796875 69.5 212.25 69.75 209.710938 C 70 207.167969 70.3125 204.636719 70.6875 202.109375 C 71.0625 199.585938 71.5 197.070312 71.996094 194.566406 C 72.496094 192.0625 73.054688 189.570312 73.675781 187.09375 C 74.296875 184.617188 74.976562 182.160156 75.71875 179.714844 C 76.457031 177.273438 77.257812 174.847656 78.117188 172.445312 C 78.980469 170.042969 79.898438 167.660156 80.875 165.300781 C 81.851562 162.941406 82.886719 160.609375 83.976562 158.300781 C 85.070312 155.992188 86.214844 153.714844 87.421875 151.460938 C 88.625 149.210938 89.882812 146.988281 91.195312 144.800781 C 92.507812 142.609375 93.871094 140.453125 95.289062 138.332031 C 96.710938 136.207031 98.179688 134.121094 99.699219 132.070312 C 101.21875 130.019531 102.789062 128.007812 104.410156 126.035156 C 106.03125 124.0625 107.695312 122.128906 109.410156 120.238281 C 111.125 118.34375 112.886719 116.496094 114.691406 114.691406 C 116.496094 112.886719 118.34375 111.125 120.238281 109.410156 C 122.128906 107.695312 124.0625 106.03125 126.035156 104.410156 C 128.007812 102.789062 130.019531 101.21875 132.070312 99.699219 C 134.121094 98.179688 136.207031 96.710938 138.332031 95.289062 C 140.453125 93.871094 142.609375 92.507812 144.800781 91.195312 C 146.988281 89.882812 149.210938 88.625 151.460938 87.421875 C 153.714844 86.214844 155.992188 85.070312 158.300781 83.976562 C 160.609375 82.886719 162.941406 81.851562 165.300781 80.875 C 167.660156 79.898438 170.042969 78.980469 172.445312 78.117188 C 174.847656 77.257812 177.273438 76.457031 179.714844 75.71875 C 182.160156 74.976562 184.617188 74.296875 187.09375 73.675781 C 189.570312 73.054688 192.0625 72.496094 194.566406 71.996094 C 197.070312 71.5 199.585938 71.0625 202.109375 70.6875 C 204.636719 70.3125 207.167969 70 209.710938 69.75 C 212.25 69.5 214.796875 69.3125 217.34375 69.1875 C 219.894531 69.0625 222.445312 69 225 69 C 227.554688 69 230.105469 69.0625 232.65625 69.1875 C 235.203125 69.3125 237.75 69.5 240.289062 69.75 C 242.832031 70 245.363281 70.3125 247.890625 70.6875 C 250.414062 71.0625 252.929688 71.5 255.433594 71.996094 C 257.9375 72.496094 260.429688 73.054688 262.90625 73.675781 C 265.382812 74.296875 267.839844 74.976562 270.285156 75.71875 C 272.726562 76.457031 275.152344 77.257812 277.554688 78.117188 C 279.957031 78.980469 282.339844 79.898438 284.699219 80.875 C 287.058594 81.851562 289.390625 82.886719 291.699219 83.976562 C 294.007812 85.070312 296.285156 86.214844 298.539062 87.421875 C 300.789062 88.625 303.011719 89.882812 305.199219 91.195312 C 307.390625 92.507812 309.546875 93.871094 311.667969 95.289062 C 313.792969 96.710938 315.878906 98.179688 317.929688 99.699219 C 319.980469 101.21875 321.992188 102.789062 323.964844 104.410156 C 325.9375 106.03125 327.871094 107.695312 329.761719 109.410156 C 331.65625 111.125 333.503906 112.886719 335.308594 114.691406 C 337.113281 116.496094 338.875 118.34375 340.589844 120.238281 C 342.304688 122.128906 343.96875 124.0625 345.589844 126.035156 C 347.210938 128.007812 348.78125 130.019531 350.300781 132.070312 C 351.820312 134.121094 353.289062 136.207031 354.710938 138.332031 C 356.128906 140.453125 357.492188 142.609375 358.804688 144.800781 C 360.117188 146.988281 361.375 149.210938 362.578125 151.460938 C 363.78125 153.714844 364.929688 155.992188 366.023438 158.300781 C 367.113281 160.609375 368.148438 162.941406 369.125 165.300781 C 370.101562 167.660156 371.019531 170.042969 371.878906 172.445312 C 372.742188 174.847656 373.542969 177.273438 374.28125 179.714844 C 375.023438 182.160156 375.703125 184.617188 376.324219 187.09375 C 376.945312 189.570312 377.503906 192.0625 378.003906 194.566406 C 378.5 197.070312 378.9375 199.585938 379.3125 202.109375 C 379.6875 204.636719 380 207.167969 380.25 209.710938 C 380.5 212.25 380.6875 214.796875 380.8125 217.34375 C 380.9375 219.894531 381 222.445312 381 225 C 380.996094 227.550781 380.929688 230.101562 380.804688 232.652344 C 380.675781 235.199219 380.484375 237.746094 380.234375 240.285156 C 379.980469 242.824219 379.664062 245.355469 379.289062 247.882812 C 378.910156 250.40625 378.472656 252.917969 377.972656 255.421875 C 377.472656 257.925781 376.910156 260.414062 376.289062 262.886719 C 375.667969 265.363281 374.984375 267.824219 374.242188 270.265625 C 373.5 272.707031 372.699219 275.128906 371.835938 277.53125 C 370.976562 279.933594 370.054688 282.3125 369.078125 284.671875 C 368.097656 287.027344 367.0625 289.359375 365.972656 291.667969 C 364.878906 293.972656 363.730469 296.25 362.527344 298.503906 C 361.324219 300.753906 360.0625 302.972656 358.75 305.160156 C 357.4375 307.347656 356.074219 309.503906 354.652344 311.625 C 353.234375 313.75 351.765625 315.832031 350.246094 317.882812 C 348.722656 319.933594 347.152344 321.945312 345.535156 323.917969 C 343.914062 325.890625 342.25 327.820312 340.535156 329.710938 C 338.820312 331.601562 337.0625 333.453125 335.257812 335.257812 C 333.453125 337.0625 331.601562 338.820312 329.710938 340.535156 C 327.820312 342.25 325.890625 343.914062 323.917969 345.535156 C 321.945312 347.152344 319.933594 348.722656 317.882812 350.246094 C 315.832031 351.765625 313.75 353.234375 311.625 354.652344 C 309.503906 356.074219 307.347656 357.4375 305.160156 358.75 C 302.972656 360.0625 300.753906 361.324219 298.503906 362.527344 C 296.25 363.730469 293.972656 364.878906 291.667969 365.972656 C 289.359375 367.0625 287.027344 368.097656 284.671875 369.078125 C 282.3125 370.054688 279.933594 370.976562 277.53125 371.835938 C 275.128906 372.699219 272.707031 373.5 270.265625 374.242188 C 267.824219 374.984375 265.363281 375.667969 262.890625 376.289062 C 260.414062 376.910156 257.925781 377.472656 255.421875 377.972656 C 252.917969 378.472656 250.40625 378.910156 247.882812 379.289062 C 245.355469 379.664062 242.824219 379.980469 240.285156 380.234375 C 237.746094 380.484375 235.199219 380.675781 232.652344 380.804688 C 230.101562 380.929688 227.550781 380.996094 225 381 Z M 225 81 C 222.644531 81 220.289062 81.058594 217.933594 81.171875 C 215.582031 81.289062 213.230469 81.460938 210.886719 81.695312 C 208.539062 81.925781 206.203125 82.210938 203.871094 82.558594 C 201.539062 82.90625 199.21875 83.308594 196.90625 83.765625 C 194.59375 84.226562 192.296875 84.742188 190.011719 85.316406 C 187.726562 85.886719 185.453125 86.515625 183.199219 87.199219 C 180.945312 87.882812 178.707031 88.625 176.488281 89.417969 C 174.269531 90.210938 172.070312 91.058594 169.894531 91.960938 C 167.714844 92.863281 165.5625 93.816406 163.433594 94.824219 C 161.300781 95.832031 159.195312 96.890625 157.117188 98.003906 C 155.039062 99.113281 152.992188 100.277344 150.96875 101.488281 C 148.949219 102.699219 146.957031 103.960938 144.996094 105.269531 C 143.039062 106.578125 141.113281 107.933594 139.21875 109.339844 C 137.328125 110.742188 135.46875 112.191406 133.648438 113.6875 C 131.824219 115.179688 130.042969 116.71875 128.296875 118.304688 C 126.550781 119.886719 124.84375 121.511719 123.175781 123.175781 C 121.511719 124.84375 119.886719 126.550781 118.304688 128.296875 C 116.71875 130.042969 115.179688 131.824219 113.6875 133.648438 C 112.191406 135.46875 110.742188 137.328125 109.339844 139.21875 C 107.933594 141.113281 106.578125 143.039062 105.269531 144.996094 C 103.960938 146.957031 102.699219 148.949219 101.488281 150.96875 C 100.277344 152.992188 99.113281 155.039062 98.003906 157.117188 C 96.890625 159.195312 95.832031 161.300781 94.824219 163.433594 C 93.816406 165.5625 92.863281 167.714844 91.960938 169.894531 C 91.058594 172.070312 90.210938 174.269531 89.417969 176.488281 C 88.625 178.707031 87.882812 180.945312 87.199219 183.199219 C 86.515625 185.453125 85.886719 187.726562 85.316406 190.011719 C 84.742188 192.296875 84.226562 194.59375 83.765625 196.90625 C 83.308594 199.21875 82.90625 201.539062 82.558594 203.871094 C 82.210938 206.203125 81.925781 208.539062 81.695312 210.886719 C 81.460938 213.230469 81.289062 215.582031 81.171875 217.933594 C 81.058594 220.289062 81 222.644531 81 225 C 81 227.355469 81.058594 229.710938 81.171875 232.066406 C 81.289062 234.417969 81.460938 236.769531 81.695312 239.113281 C 81.925781 241.460938 82.210938 243.796875 82.558594 246.128906 C 82.90625 248.460938 83.308594 250.78125 83.765625 253.09375 C 84.226562 255.40625 84.742188 257.703125 85.316406 259.988281 C 85.886719 262.273438 86.515625 264.546875 87.199219 266.800781 C 87.882812 269.054688 88.625 271.292969 89.417969 273.511719 C 90.210938 275.730469 91.058594 277.929688 91.960938 280.105469 C 92.863281 282.285156 93.816406 284.4375 94.824219 286.566406 C 95.832031 288.699219 96.890625 290.800781 98.003906 292.882812 C 99.113281 294.960938 100.277344 297.007812 101.488281 299.03125 C 102.699219 301.050781 103.960938 303.042969 105.269531 305.003906 C 106.578125 306.960938 107.933594 308.886719 109.339844 310.78125 C 110.742188 312.671875 112.191406 314.53125 113.6875 316.351562 C 115.179688 318.175781 116.71875 319.957031 118.304688 321.703125 C 119.886719 323.449219 121.511719 325.15625 123.175781 326.824219 C 124.84375 328.488281 126.550781 330.113281 128.296875 331.695312 C 130.042969 333.28125 131.824219 334.820312 133.648438 336.3125 C 135.46875 337.808594 137.328125 339.257812 139.21875 340.660156 C 141.113281 342.066406 143.039062 343.421875 144.996094 344.730469 C 146.957031 346.039062 148.949219 347.300781 150.96875 348.511719 C 152.992188 349.722656 155.039062 350.886719 157.117188 351.996094 C 159.195312 353.109375 161.300781 354.167969 163.433594 355.175781 C 165.5625 356.183594 167.714844 357.136719 169.894531 358.039062 C 172.070312 358.941406 174.269531 359.789062 176.488281 360.582031 C 178.707031 361.375 180.945312 362.117188 183.199219 362.800781 C 185.453125 363.484375 187.726562 364.113281 190.011719 364.683594 C 192.296875 365.257812 194.59375 365.773438 196.90625 366.234375 C 199.21875 366.691406 201.539062 367.09375 203.871094 367.441406 C 206.203125 367.789062 208.539062 368.074219 210.886719 368.304688 C 213.230469 368.539062 215.582031 368.710938 217.933594 368.828125 C 220.289062 368.941406 222.644531 369 225 369 C 227.355469 369 229.710938 368.941406 232.066406 368.828125 C 234.417969 368.710938 236.769531 368.539062 239.113281 368.304688 C 241.460938 368.074219 243.796875 367.789062 246.128906 367.441406 C 248.460938 367.09375 250.78125 366.691406 253.09375 366.234375 C 255.40625 365.773438 257.703125 365.257812 259.988281 364.683594 C 262.273438 364.113281 264.546875 363.484375 266.800781 362.800781 C 269.054688 362.117188 271.292969 361.375 273.511719 360.582031 C 275.730469 359.789062 277.929688 358.941406 280.105469 358.039062 C 282.285156 357.136719 284.4375 356.183594 286.566406 355.175781 C 288.699219 354.167969 290.800781 353.109375 292.882812 351.996094 C 294.960938 350.886719 297.007812 349.722656 299.03125 348.511719 C 301.050781 347.300781 303.042969 346.039062 305.003906 344.730469 C 306.960938 343.421875 308.886719 342.066406 310.78125 340.660156 C 312.671875 339.257812 314.53125 337.808594 316.351562 336.3125 C 318.175781 334.820312 319.957031 333.28125 321.703125 331.695312 C 323.449219 330.113281 325.15625 328.488281 326.824219 326.824219 C 328.488281 325.15625 330.113281 323.449219 331.695312 321.703125 C 333.28125 319.957031 334.820312 318.175781 336.3125 316.351562 C 337.808594 314.53125 339.257812 312.671875 340.660156 310.78125 C 342.066406 308.886719 343.421875 306.960938 344.730469 305.003906 C 346.039062 303.042969 347.300781 301.050781 348.511719 299.03125 C 349.722656 297.007812 350.886719 294.960938 351.996094 292.882812 C 353.109375 290.800781 354.167969 288.699219 355.175781 286.566406 C 356.183594 284.4375 357.136719 282.285156 358.039062 280.105469 C 358.941406 277.929688 359.789062 275.730469 360.582031 273.511719 C 361.375 271.292969 362.117188 269.054688 362.800781 266.800781 C 363.484375 264.546875 364.113281 262.273438 364.683594 259.988281 C 365.257812 257.703125 365.773438 255.40625 366.234375 253.09375 C 366.691406 250.78125 367.09375 248.460938 367.441406 246.128906 C 367.789062 243.796875 368.074219 241.460938 368.304688 239.113281 C 368.539062 236.769531 368.710938 234.417969 368.828125 232.066406 C 368.941406 229.710938 369 227.355469 369 225 C 368.996094 222.644531 368.9375 220.289062 368.820312 217.9375 C 368.699219 215.582031 368.523438 213.234375 368.292969 210.890625 C 368.058594 208.546875 367.765625 206.210938 367.417969 203.878906 C 367.070312 201.550781 366.667969 199.230469 366.207031 196.917969 C 365.742188 194.609375 365.226562 192.3125 364.652344 190.027344 C 364.078125 187.742188 363.445312 185.472656 362.761719 183.21875 C 362.074219 180.964844 361.335938 178.726562 360.539062 176.511719 C 359.746094 174.292969 358.898438 172.09375 357.992188 169.917969 C 357.089844 167.742188 356.136719 165.589844 355.125 163.460938 C 354.117188 161.332031 353.058594 159.230469 351.945312 157.152344 C 350.835938 155.074219 349.675781 153.027344 348.460938 151.003906 C 347.25 148.984375 345.988281 146.996094 344.679688 145.039062 C 343.371094 143.078125 342.015625 141.152344 340.609375 139.261719 C 339.207031 137.371094 337.757812 135.511719 336.261719 133.691406 C 334.765625 131.871094 333.230469 130.089844 331.644531 128.34375 C 330.0625 126.597656 328.441406 124.890625 326.773438 123.226562 C 325.109375 121.558594 323.402344 119.9375 321.65625 118.351562 C 319.910156 116.769531 318.128906 115.234375 316.308594 113.738281 C 314.488281 112.242188 312.628906 110.792969 310.738281 109.390625 C 308.847656 107.984375 306.921875 106.628906 304.960938 105.320312 C 303.003906 104.011719 301.015625 102.75 298.996094 101.539062 C 296.972656 100.324219 294.925781 99.164062 292.847656 98.054688 C 290.769531 96.941406 288.667969 95.882812 286.539062 94.871094 C 284.410156 93.863281 282.257812 92.910156 280.082031 92.007812 C 277.902344 91.101562 275.707031 90.253906 273.488281 89.460938 C 271.273438 88.664062 269.035156 87.921875 266.78125 87.238281 C 264.527344 86.550781 262.257812 85.921875 259.972656 85.347656 C 257.6875 84.773438 255.390625 84.257812 253.082031 83.792969 C 250.769531 83.332031 248.449219 82.929688 246.121094 82.582031 C 243.789062 82.234375 241.453125 81.941406 239.109375 81.707031 C 236.765625 81.476562 234.417969 81.300781 232.0625 81.179688 C 229.710938 81.0625 227.355469 81.003906 225 81 Z M 225 81 " fill-opacity="1" fill-rule="nonzero"/><path fill="#ffffff" d="M 309 237 C 309 224.484375 291.851562 214.558594 261.949219 209.785156 C 261.566406 209.734375 261.179688 209.722656 260.792969 209.746094 C 260.410156 209.769531 260.027344 209.832031 259.65625 209.929688 C 259.28125 210.027344 258.917969 210.160156 258.570312 210.328125 C 258.222656 210.496094 257.894531 210.695312 257.585938 210.925781 C 257.273438 211.15625 256.992188 211.417969 256.730469 211.703125 C 256.472656 211.988281 256.242188 212.296875 256.039062 212.628906 C 255.839844 212.957031 255.675781 213.304688 255.542969 213.667969 C 255.40625 214.03125 255.3125 214.402344 255.25 214.785156 C 255.1875 215.167969 255.164062 215.550781 255.179688 215.9375 C 255.191406 216.324219 255.242188 216.707031 255.328125 217.082031 C 255.414062 217.457031 255.535156 217.824219 255.695312 218.175781 C 255.851562 218.53125 256.042969 218.863281 256.261719 219.179688 C 256.484375 219.496094 256.734375 219.789062 257.015625 220.058594 C 257.292969 220.324219 257.59375 220.5625 257.917969 220.773438 C 258.242188 220.984375 258.585938 221.160156 258.945312 221.304688 C 259.304688 221.449219 259.671875 221.554688 260.050781 221.628906 C 287.695312 226.050781 297 234.035156 297 237 C 297 241.535156 280.960938 250.566406 249 253.800781 L 249 189 L 279 189 C 279.785156 189 280.570312 188.960938 281.351562 188.882812 C 282.132812 188.808594 282.910156 188.691406 283.683594 188.539062 C 284.453125 188.386719 285.214844 188.195312 285.96875 187.964844 C 286.71875 187.738281 287.457031 187.472656 288.183594 187.171875 C 288.910156 186.871094 289.621094 186.535156 290.3125 186.167969 C 291.007812 185.796875 291.679688 185.390625 292.332031 184.957031 C 292.988281 184.519531 293.617188 184.050781 294.226562 183.550781 C 294.832031 183.054688 295.414062 182.527344 295.96875 181.96875 C 296.527344 181.414062 297.054688 180.832031 297.550781 180.226562 C 298.050781 179.617188 298.519531 178.988281 298.957031 178.332031 C 299.390625 177.679688 299.796875 177.007812 300.167969 176.3125 C 300.535156 175.621094 300.871094 174.910156 301.171875 174.183594 C 301.472656 173.457031 301.738281 172.71875 301.964844 171.964844 C 302.195312 171.214844 302.386719 170.453125 302.539062 169.683594 C 302.691406 168.910156 302.808594 168.132812 302.882812 167.351562 C 302.960938 166.570312 303 165.785156 303 165 C 303 164.214844 302.960938 163.429688 302.882812 162.648438 C 302.808594 161.867188 302.691406 161.089844 302.539062 160.316406 C 302.386719 159.546875 302.195312 158.785156 301.964844 158.03125 C 301.738281 157.28125 301.472656 156.542969 301.171875 155.816406 C 300.871094 155.089844 300.535156 154.378906 300.167969 153.6875 C 299.796875 152.992188 299.390625 152.320312 298.957031 151.667969 C 298.519531 151.011719 298.050781 150.382812 297.550781 149.773438 C 297.054688 149.167969 296.527344 148.585938 295.96875 148.03125 C 295.414062 147.472656 294.832031 146.945312 294.226562 146.449219 C 293.617188 145.949219 292.988281 145.480469 292.332031 145.042969 C 291.679688 144.609375 291.007812 144.203125 290.3125 143.832031 C 289.621094 143.464844 288.910156 143.128906 288.183594 142.828125 C 287.457031 142.527344 286.71875 142.261719 285.96875 142.035156 C 285.214844 141.804688 284.453125 141.613281 283.683594 141.460938 C 282.910156 141.308594 282.132812 141.191406 281.351562 141.117188 C 280.570312 141.039062 279.785156 141 279 141 L 171 141 C 170.214844 141 169.429688 141.039062 168.648438 141.117188 C 167.867188 141.191406 167.089844 141.308594 166.316406 141.460938 C 165.546875 141.613281 164.785156 141.804688 164.03125 142.035156 C 163.28125 142.261719 162.542969 142.527344 161.816406 142.828125 C 161.089844 143.128906 160.378906 143.464844 159.6875 143.832031 C 158.992188 144.203125 158.320312 144.609375 157.667969 145.042969 C 157.011719 145.480469 156.382812 145.949219 155.773438 146.449219 C 155.167969 146.945312 154.585938 147.472656 154.03125 148.03125 C 153.472656 148.585938 152.945312 149.167969 152.449219 149.773438 C 151.949219 150.382812 151.480469 151.011719 151.042969 151.667969 C 150.609375 152.320312 150.203125 152.992188 149.832031 153.6875 C 149.464844 154.378906 149.128906 155.089844 148.828125 155.816406 C 148.527344 156.542969 148.261719 157.28125 148.035156 158.03125 C 147.804688 158.785156 147.613281 159.546875 147.460938 160.316406 C 147.308594 161.089844 147.191406 161.867188 147.117188 162.648438 C 147.039062 163.429688 147 164.214844 147 165 C 147 165.785156 147.039062 166.570312 147.117188 167.351562 C 147.191406 168.132812 147.308594 168.910156 147.460938 169.683594 C 147.613281 170.453125 147.804688 171.214844 148.035156 171.964844 C 148.261719 172.71875 148.527344 173.457031 148.828125 174.183594 C 149.128906 174.910156 149.464844 175.621094 149.832031 176.3125 C 150.203125 177.007812 150.609375 177.679688 151.042969 178.332031 C 151.480469 178.988281 151.949219 179.617188 152.449219 180.226562 C 152.945312 180.832031 153.472656 181.414062 154.03125 181.96875 C 154.585938 182.527344 155.167969 183.054688 155.773438 183.550781 C 156.382812 184.050781 157.011719 184.519531 157.667969 184.957031 C 158.320312 185.390625 158.992188 185.796875 159.6875 186.167969 C 160.378906 186.535156 161.089844 186.871094 161.816406 187.171875 C 162.542969 187.472656 163.28125 187.738281 164.03125 187.964844 C 164.785156 188.195312 165.546875 188.386719 166.316406 188.539062 C 167.089844 188.691406 167.867188 188.808594 168.648438 188.882812 C 169.429688 188.960938 170.214844 189 171 189 L 201 189 L 201 253.800781 C 169.039062 250.566406 153 241.535156 153 237 C 153 234.035156 162.304688 226.050781 189.949219 221.628906 C 190.328125 221.554688 190.695312 221.449219 191.054688 221.304688 C 191.414062 221.160156 191.757812 220.984375 192.082031 220.773438 C 192.40625 220.5625 192.707031 220.324219 192.984375 220.058594 C 193.265625 219.789062 193.515625 219.496094 193.738281 219.179688 C 193.957031 218.863281 194.148438 218.53125 194.304688 218.175781 C 194.464844 217.824219 194.585938 217.457031 194.671875 217.082031 C 194.757812 216.707031 194.808594 216.324219 194.820312 215.9375 C 194.835938 215.550781 194.8125 215.167969 194.75 214.785156 C 194.6875 214.402344 194.59375 214.03125 194.457031 213.667969 C 194.324219 213.304688 194.160156 212.957031 193.960938 212.628906 C 193.757812 212.296875 193.527344 211.988281 193.269531 211.703125 C 193.011719 211.417969 192.726562 211.15625 192.414062 210.925781 C 192.105469 210.695312 191.777344 210.496094 191.429688 210.328125 C 191.082031 210.160156 190.71875 210.027344 190.34375 209.929688 C 189.972656 209.832031 189.589844 209.769531 189.207031 209.746094 C 188.820312 209.722656 188.433594 209.734375 188.050781 209.785156 C 158.148438 214.558594 141 224.484375 141 237 C 141 254.101562 171.035156 262.980469 201 265.855469 L 201 309 C 201 309.785156 201.039062 310.570312 201.117188 311.351562 C 201.191406 312.132812 201.308594 312.910156 201.460938 313.683594 C 201.613281 314.453125 201.804688 315.214844 202.035156 315.96875 C 202.261719 316.71875 202.527344 317.457031 202.828125 318.183594 C 203.128906 318.910156 203.464844 319.621094 203.832031 320.3125 C 204.203125 321.007812 204.609375 321.679688 205.042969 322.332031 C 205.480469 322.988281 205.949219 323.617188 206.449219 324.226562 C 206.945312 324.832031 207.472656 325.414062 208.03125 325.96875 C 208.585938 326.527344 209.167969 327.054688 209.773438 327.550781 C 210.382812 328.050781 211.011719 328.519531 211.667969 328.957031 C 212.320312 329.390625 212.992188 329.796875 213.6875 330.167969 C 214.378906 330.535156 215.089844 330.871094 215.816406 331.171875 C 216.542969 331.472656 217.28125 331.738281 218.03125 331.964844 C 218.785156 332.195312 219.546875 332.386719 220.316406 332.539062 C 221.089844 332.691406 221.867188 332.808594 222.648438 332.882812 C 223.429688 332.960938 224.214844 333 225 333 C 225.785156 333 226.570312 332.960938 227.351562 332.882812 C 228.132812 332.808594 228.910156 332.691406 229.683594 332.539062 C 230.453125 332.386719 231.214844 332.195312 231.96875 331.964844 C 232.71875 331.738281 233.457031 331.472656 234.183594 331.171875 C 234.910156 330.871094 235.621094 330.535156 236.3125 330.167969 C 237.007812 329.796875 237.679688 329.390625 238.332031 328.957031 C 238.988281 328.519531 239.617188 328.050781 240.226562 327.550781 C 240.832031 327.054688 241.414062 326.527344 241.96875 325.96875 C 242.527344 325.414062 243.054688 324.832031 243.550781 324.226562 C 244.050781 323.617188 244.519531 322.988281 244.957031 322.332031 C 245.390625 321.679688 245.796875 321.007812 246.167969 320.3125 C 246.535156 319.621094 246.871094 318.910156 247.171875 318.183594 C 247.472656 317.457031 247.738281 316.71875 247.964844 315.964844 C 248.195312 315.214844 248.386719 314.453125 248.539062 313.683594 C 248.691406 312.910156 248.808594 312.132812 248.882812 311.351562 C 248.960938 310.570312 249 309.785156 249 309 L 249 265.855469 C 279 262.980469 309 254.101562 309 237 Z M 171 177 C 170.210938 177 169.433594 176.921875 168.660156 176.769531 C 167.886719 176.617188 167.136719 176.386719 166.40625 176.085938 C 165.679688 175.785156 164.988281 175.414062 164.332031 174.976562 C 163.679688 174.539062 163.070312 174.042969 162.515625 173.484375 C 161.957031 172.929688 161.460938 172.320312 161.023438 171.667969 C 160.585938 171.011719 160.214844 170.320312 159.914062 169.59375 C 159.613281 168.863281 159.382812 168.113281 159.230469 167.339844 C 159.078125 166.566406 159 165.789062 159 165 C 159 164.210938 159.078125 163.433594 159.230469 162.660156 C 159.382812 161.886719 159.613281 161.136719 159.914062 160.40625 C 160.214844 159.679688 160.585938 158.988281 161.023438 158.332031 C 161.460938 157.679688 161.957031 157.070312 162.515625 156.515625 C 163.070312 155.957031 163.679688 155.460938 164.332031 155.023438 C 164.988281 154.585938 165.679688 154.214844 166.40625 153.914062 C 167.136719 153.613281 167.886719 153.382812 168.660156 153.230469 C 169.433594 153.078125 170.210938 153 171 153 L 279 153 C 279.789062 153 280.566406 153.078125 281.339844 153.230469 C 282.113281 153.382812 282.863281 153.613281 283.59375 153.914062 C 284.320312 154.214844 285.011719 154.585938 285.667969 155.023438 C 286.320312 155.460938 286.929688 155.957031 287.484375 156.515625 C 288.042969 157.070312 288.539062 157.679688 288.976562 158.332031 C 289.414062 158.988281 289.785156 159.679688 290.085938 160.40625 C 290.386719 161.136719 290.617188 161.886719 290.769531 162.660156 C 290.921875 163.433594 291 164.210938 291 165 C 291 165.789062 290.921875 166.566406 290.769531 167.339844 C 290.617188 168.113281 290.386719 168.863281 290.085938 169.59375 C 289.785156 170.320312 289.414062 171.011719 288.976562 171.667969 C 288.539062 172.320312 288.042969 172.929688 287.484375 173.484375 C 286.929688 174.042969 286.320312 174.539062 285.667969 174.976562 C 285.011719 175.414062 284.320312 175.785156 283.59375 176.085938 C 282.863281 176.386719 282.113281 176.617188 281.339844 176.769531 C 280.566406 176.921875 279.789062 177 279 177 L 243 177 C 242.605469 177 242.214844 177.039062 241.828125 177.117188 C 241.441406 177.191406 241.066406 177.304688 240.703125 177.457031 C 240.339844 177.609375 239.992188 177.792969 239.667969 178.011719 C 239.339844 178.230469 239.035156 178.480469 238.757812 178.757812 C 238.480469 179.035156 238.230469 179.339844 238.011719 179.667969 C 237.792969 179.992188 237.609375 180.339844 237.457031 180.703125 C 237.304688 181.066406 237.191406 181.441406 237.117188 181.828125 C 237.039062 182.214844 237 182.605469 237 183 L 237 254.554688 C 229 254.957031 221 254.957031 213 254.554688 L 213 183 C 213 182.605469 212.960938 182.214844 212.882812 181.828125 C 212.808594 181.441406 212.695312 181.066406 212.542969 180.703125 C 212.390625 180.339844 212.207031 179.992188 211.988281 179.667969 C 211.769531 179.339844 211.519531 179.035156 211.242188 178.757812 C 210.964844 178.480469 210.660156 178.230469 210.332031 178.011719 C 210.003906 177.792969 209.660156 177.609375 209.296875 177.457031 C 208.933594 177.304688 208.558594 177.191406 208.171875 177.117188 C 207.785156 177.039062 207.394531 177 207 177 Z M 225 321 C 224.210938 321 223.433594 320.921875 222.660156 320.769531 C 221.886719 320.617188 221.136719 320.386719 220.40625 320.085938 C 219.679688 319.785156 218.988281 319.414062 218.332031 318.976562 C 217.679688 318.539062 217.070312 318.042969 216.515625 317.484375 C 215.957031 316.929688 215.460938 316.320312 215.023438 315.667969 C 214.585938 315.011719 214.214844 314.320312 213.914062 313.59375 C 213.613281 312.863281 213.382812 312.113281 213.230469 311.339844 C 213.078125 310.566406 213 309.789062 213 309 L 213 266.675781 C 217.019531 266.867188 221.039062 267 225 267 C 228.960938 267 232.980469 266.867188 237 266.675781 L 237 309 C 237 309.789062 236.921875 310.566406 236.769531 311.339844 C 236.617188 312.113281 236.386719 312.863281 236.085938 313.59375 C 235.785156 314.320312 235.414062 315.011719 234.976562 315.667969 C 234.539062 316.320312 234.042969 316.929688 233.484375 317.484375 C 232.929688 318.042969 232.320312 318.539062 231.667969 318.976562 C 231.011719 319.414062 230.320312 319.785156 229.59375 320.085938 C 228.863281 320.386719 228.113281 320.617188 227.339844 320.769531 C 226.566406 320.921875 225.789062 321 225 321 Z M 225 321 " fill-opacity="1" fill-rule="nonzero"/></svg>